<svg width="3692" height="505" viewBox="0 0 3692 505" fill="none" xmlns="http://www.w3.org/2000/svg">
  <path d="M863.048 273.432C1041.78 502.943 1557.81 631.744 2214.53 320.802L1719.96 394.912L863.048 273.432Z" fill="url(#paint0_linear)"/>
  <g style="mix-blend-mode:multiply">
    <path d="M1344.78 290.439C1297.82 310.39 1253.54 327.825 1211.94 342.742C1488.8 379.531 1740.94 404.453 1873.29 393.891C2006 383.3 2093.47 348.69 2185.92 313.763C1827.5 199.318 1658.99 156.93 1344.78 290.439Z" fill="url(#paint1_linear)"/>
  </g>
  <path d="M1342.32 339.07C1182.47 317.831 1012.97 291.945 859.043 267.682L1342.32 339.07Z" fill="url(#paint2_linear)"/>
  <g style="mix-blend-mode:multiply">
    <path d="M3378.47 171.307C3318 189.559 3203.98 242.491 3051.13 294.157C3207.15 305.053 3371.02 307.316 3565.98 284.876H3907.54C3753.5 208.524 3572.68 112.677 3378.47 171.307Z" fill="url(#paint3_linear)"/>
  </g>
  <path d="M2633.49 227.566C2417.37 228.61 2297.99 271.42 2185.92 313.764C2252.03 334.874 2324.6 358.434 2405.74 383.797C2741.33 488.689 3043.98 391.374 3256.31 289.892C3056.78 270.19 2872.72 226.41 2633.49 227.566Z" fill="url(#paint4_linear)"/>
  <path d="M327.244 240.134C217.735 246.415 129.78 268.082 18.3935 254.824C-74.573 243.758 -152.313 217.299 -187.605 185.898C-241.588 137.865 -210.529 82.5327 -140.273 37.043C-109.969 17.422 -57.5745 -3.33033 6.2168 0.449233C46.7688 2.85189 76.6409 14.7489 97.3744 26.9422C144.393 54.5941 184.403 78.089 288.864 79.2902C351.769 80.0133 412.862 72.7209 471.972 65.3056C531.082 57.8903 591.451 50.1536 654.389 49.9328C906.136 49.0504 1002.57 144.948 1100.55 207.035C1191.61 264.733 1333.09 333.682 1531.6 337.98C1705.62 341.749 1894.79 291.052 2006.61 249.881C2132.98 203.348 2263.74 152.969 2407.71 111.784C2756.85 11.9104 2935.27 154.54 3227.78 195.799C3399.35 219.999 3524.56 197.901 3625.99 146.542C3709.73 104.142 3766.97 53.4619 3886.59 22.8096C3968.82 1.73666 4109.78 -2.69605 4155.46 28.8324C4193.98 55.4192 4136.44 85.9029 4081.91 108.958C3979.74 152.15 3876.59 195.679 3750.76 230.762C3624.93 265.845 3473.08 292.309 3311.24 295.789C2995.14 302.587 2679.04 222.723 2379.69 258.198C2234.03 275.46 2126.59 316.934 2012.85 352.601C1899.11 388.267 1755.81 421.052 1603.04 414.088C1452.87 407.242 1342.33 364.732 1224.43 332.099C971.535 262.099 647.767 221.751 327.244 240.134Z" fill="url(#paint5_linear)"/>
  <g style="mix-blend-mode:multiply">
    <path d="M97.3753 26.9421C76.6418 14.7489 46.7689 2.85187 6.21729 0.449209C-30.1174 -1.7036 -62.7461 4.10759 -89.71 13.1302L14.9291 122.913C14.9291 122.913 164.792 158.26 534.479 216.105C588 224.48 649.544 234.341 716.364 245.013C762.762 248.722 808.44 253.422 853.13 259.085C744.673 102.578 603.978 78.7135 311.466 79.2112C303.958 79.3421 296.425 79.377 288.865 79.2901C184.404 78.089 144.394 54.5941 97.3753 26.9421Z" fill="url(#paint6_linear)"/>
  </g>
  <path d="M3888.63 183.835C3871.99 201.51 3833 215.572 3792.82 228.023C3676.03 264.219 3543.05 299.116 3387.86 312.646C3180.95 330.681 2996.3 292.624 2807.69 270.225C2697.28 257.117 2576.16 250.907 2464.43 262.592C2220.26 288.119 1951.47 445.038 1684.78 445.82C1464.7 446.461 1333.09 394.046 1189.21 355.739C1083.86 327.693 976.555 295.659 863.047 273.431C712.371 243.9 550.797 231.637 368.473 268.848C366.558 269.24 364.688 269.631 362.772 270.022C265.864 290.309 143.646 322.171 31.0039 295.221C-30.3786 280.549 -52.0859 253.191 -64.3987 227.867C-66.0404 224.426 -67.6367 220.985 -69.0961 217.543C-70.6009 214.086 -72.0149 210.645 -73.2457 207.189C-95.5671 147.496 -89.8705 86.9616 -56.3724 27.8865C-49.5317 15.7797 -33.0235 1.10773 2.86678 0.341328C40.6269 -0.472046 61.559 14.6223 74.7385 26.7759C137.854 84.9165 250.176 130.481 386.122 167.443C524.985 205.218 688.521 233.983 849.366 257.946C850.369 258.103 851.372 258.243 852.376 258.4C972.405 276.232 1086.28 296.534 1206.17 314.163C1446.18 349.435 1696.37 361.182 1928.03 311.566C2141.19 265.924 2287.67 180.754 2567.95 185.728C2830.44 190.374 2973 296.832 3229.43 293.109C3315.49 291.858 3394.75 275.246 3453.62 253.676C3528.5 226.256 3569.54 191.124 3635.72 161.608C3647.09 156.44 3659.51 151.553 3672.88 146.983C3689 141.416 3707.65 136.788 3728.11 133.281C3765.69 127.071 3812.8 126.148 3847.77 133.938C3893.15 144.074 3905.23 166.16 3888.63 183.835Z" fill="url(#paint7_linear)"/>
  <g style="mix-blend-mode:multiply">
    <path d="M3387.84 312.648C3437.03 308.255 3484.59 301.948 3529.59 293.849C2771.04 100.6 2693.91 147.103 2096.14 359.223L2096.15 359.226C2222.65 317.966 2346.41 274.933 2464.42 262.59C2576.14 250.905 2697.29 257.118 2807.67 270.223C2996.28 292.618 3180.95 330.688 3387.84 312.648Z" fill="url(#paint8_linear)"/>
  </g>
  <g style="mix-blend-mode:overlay">
    <path d="M863.049 273.431C712.374 243.9 550.8 231.637 368.475 268.848C366.56 269.239 364.69 269.631 362.775 270.022C265.867 290.309 143.648 322.171 31.0063 295.22C-30.3762 280.548 -52.0834 253.191 -64.3962 227.867C-66.0379 224.426 -67.6343 220.985 -69.0937 217.543C-70.5535 214.086 -71.9667 210.645 -73.2433 207.188C-75.7975 200.275 -77.9865 193.351 -79.8105 186.416C40.4923 186.088 216.797 170.055 386.124 167.443C401.173 167.208 416.162 167.088 431.089 167.083C610.677 167.083 775.9 185.446 849.368 257.946C854.384 262.858 858.945 268.004 863.049 273.431Z" fill="#ACE4FF"/>
  </g>
  <defs>
    <linearGradient id="paint0_linear" x1="1990.4" y1="420.956" x2="1061.92" y2="29.3775" gradientUnits="userSpaceOnUse">
      <stop stop-color="#1C4557" stop-opacity="0"/>
      <stop offset="1" stop-color="#9ACFE8"/>
    </linearGradient>
    <linearGradient id="paint1_linear" x1="30260.5" y1="17183.3" x2="248859" y2="17183.3" gradientUnits="userSpaceOnUse">
      <stop stop-color="#5ECAFF"/>
      <stop offset="0.98767" stop-color="#565DE9"/>
    </linearGradient>
    <linearGradient id="paint2_linear" x1="156870" y1="10084.8" x2="156663" y2="20680.4" gradientUnits="userSpaceOnUse">
      <stop stop-color="#5A0389"/>
      <stop offset="1" stop-color="#553BD2"/>
    </linearGradient>
    <linearGradient id="paint3_linear" x1="28593.1" y1="13546.8" x2="220804" y2="13546.8" gradientUnits="userSpaceOnUse">
      <stop stop-color="#5ECAFF"/>
      <stop offset="0.98767" stop-color="#565DE9"/>
    </linearGradient>
    <linearGradient id="paint4_linear" x1="3078.79" y1="355.86" x2="2323.95" y2="65.9847" gradientUnits="userSpaceOnUse">
      <stop stop-color="#1C4557" stop-opacity="0"/>
      <stop offset="1" stop-color="#9ACFE8"/>
    </linearGradient>
    <linearGradient id="paint5_linear" x1="1980.13" y1="63.4765" x2="1974.01" y2="428.686" gradientUnits="userSpaceOnUse">
      <stop stop-color="#FF4E86"/>
      <stop offset="0.98767" stop-color="#946179" stop-opacity="0"/>
    </linearGradient>
    <linearGradient id="paint6_linear" x1="28030.1" y1="23293.1" x2="239639" y2="23293.1" gradientUnits="userSpaceOnUse">
      <stop stop-color="#5ECAFF"/>
      <stop offset="0.98767" stop-color="#565DE9"/>
    </linearGradient>
    <linearGradient id="paint7_linear" x1="1812.76" y1="446" x2="1826.01" y2="97.8334" gradientUnits="userSpaceOnUse">
      <stop stop-color="#E25380"/>
      <stop offset="0.99904" stop-color="#FF77A2"/>
    </linearGradient>
    <linearGradient id="paint8_linear" x1="44848.3" y1="17035.6" x2="366570" y2="17035.6" gradientUnits="userSpaceOnUse">
      <stop stop-color="#5ECAFF"/>
      <stop offset="0.98767" stop-color="#565DE9"/>
    </linearGradient>
  </defs>
</svg>
