<?xml version="1.0" standalone="no"?>
<!DOCTYPE svg PUBLIC "-//W3C//DTD SVG 20010904//EN"
 "http://www.w3.org/TR/2001/REC-SVG-20010904/DTD/svg10.dtd">
<svg version="1.0" xmlns="http://www.w3.org/2000/svg"
 width="1872.000000pt" height="1872.000000pt" viewBox="0 0 1872.000000 1872.000000"
 preserveAspectRatio="xMidYMid meet">
<metadata>
Created by potrace 1.11, written by Peter Selinger 2001-2013
</metadata>
<g transform="translate(0.000000,1872.000000) scale(0.100000,-0.100000)"
fill="#000000" stroke="none">
<path d="M4518 13995 c-2 -2 -16 -5 -33 -8 -45 -7 -145 -47 -189 -75 -50 -31
-163 -132 -149 -132 4 0 1 -6 -8 -13 -27 -21 -85 -139 -104 -212 -18 -67 -19
-226 -20 -4190 -1 -4543 -7 -4181 63 -4325 40 -81 149 -202 212 -236 19 -10
43 -25 53 -33 9 -8 17 -10 17 -5 0 5 4 4 8 -1 25 -36 238 -65 332 -46 30 6 64
13 75 15 40 8 121 49 180 91 124 88 212 230 241 389 5 29 8 179 4 201 -1 6 -1
15 0 20 3 12 2 292 0 303 -2 4 -1 12 0 17 3 12 2 292 0 303 -2 4 -1 12 0 17 3
12 2 292 0 303 -2 4 -1 12 0 17 3 12 2 292 0 303 -2 4 -1 12 0 17 3 12 2 292
0 303 -2 4 -1 12 0 17 3 12 2 292 0 303 -2 4 -1 12 0 17 3 12 2 292 0 303 -2
4 -1 12 0 17 3 12 2 292 0 303 -2 4 -1 12 0 17 3 12 2 292 0 303 -2 4 -1 12 0
17 7 32 4 372 -4 368 -5 -4 -6 0 -1 7 10 16 10 274 0 289 -3 6 -3 11 2 11 4 0
8 40 8 89 0 49 -3 87 -7 85 -4 -3 -5 2 -1 11 10 27 9 474 -1 468 -5 -4 -6 0
-1 7 10 16 10 274 0 289 -3 6 -3 11 2 11 4 0 8 40 8 89 0 49 -3 87 -7 85 -4
-3 -5 2 -1 11 10 27 9 474 -1 468 -5 -4 -6 0 -1 7 10 16 10 274 0 289 -3 6 -3
11 2 11 4 0 8 40 8 89 0 49 -3 87 -7 85 -4 -3 -5 2 -1 11 10 27 9 474 -1 468
-5 -4 -6 0 -1 7 10 16 10 274 0 289 -3 6 -3 11 2 11 4 0 8 40 8 89 0 49 -3 87
-7 85 -4 -3 -5 2 -1 11 10 27 9 474 -1 468 -5 -4 -6 0 -1 7 10 16 10 274 0
289 -3 6 -3 11 2 11 4 0 8 51 8 114 0 63 -3 112 -7 109 -5 -2 -4 6 0 19 9 27
8 138 -1 162 -4 9 -3 15 1 12 9 -5 7 157 -2 234 -4 30 -12 71 -19 90 -6 19
-11 37 -12 40 0 3 -6 15 -13 28 -7 12 -10 22 -7 22 10 0 -77 122 -118 167 -22
24 -45 43 -52 43 -7 0 -15 6 -18 13 -4 12 -122 77 -151 84 -6 1 -37 9 -68 17
-49 12 -210 20 -220 11z"/>
<path d="M10968 13795 c-2 -2 -30 -6 -63 -9 -65 -8 -106 -14 -145 -21 -14 -3
-34 -7 -45 -9 -95 -18 -267 -73 -355 -114 -30 -14 -57 -26 -60 -27 -5 -1 -39
-18 -119 -60 -199 -104 -469 -344 -601 -534 -14 -20 -31 -42 -37 -49 -7 -7
-13 -17 -13 -22 0 -5 -6 -15 -13 -22 -15 -16 -47 -65 -49 -75 0 -5 -12 -25
-25 -46 -24 -38 -40 -74 -41 -91 0 -5 -4 -12 -9 -15 -11 -8 -35 -60 -40 -85
-2 -11 -7 -24 -12 -30 -13 -16 -68 -191 -76 -241 -2 -11 -4 -20 -5 -20 -2 0
-4 -10 -14 -75 -4 -19 -8 -48 -11 -64 -26 -151 -23 -427 5 -586 5 -30 11 -67
12 -82 1 -16 5 -28 8 -28 3 0 6 -15 7 -33 4 -45 8 -65 16 -73 4 -4 7 -14 7
-23 0 -9 14 -59 31 -111 17 -52 32 -99 33 -105 4 -12 14 -37 36 -90 9 -22 23
-56 30 -75 19 -48 128 -258 154 -295 11 -16 21 -32 20 -35 -1 -20 232 -350
317 -445 29 -33 155 -167 250 -264 14 -14 45 -51 70 -81 24 -30 46 -57 49 -60
15 -14 70 -90 70 -95 0 -4 13 -24 28 -44 91 -116 287 -501 317 -621 1 -3 4
-12 8 -20 8 -22 38 -119 41 -133 2 -7 8 -30 14 -52 11 -40 14 -52 31 -135 9
-41 18 -96 26 -160 11 -73 18 -208 18 -310 1 -154 -8 -250 -38 -447 -11 -70
-78 -329 -95 -368 -5 -11 -21 -56 -36 -100 -15 -44 -43 -114 -61 -155 -19 -41
-34 -76 -33 -78 3 -6 -123 -256 -165 -327 -25 -42 -45 -81 -45 -86 0 -5 -5 -9
-11 -9 -5 0 -15 -14 -20 -30 -6 -17 -15 -30 -20 -30 -5 0 -9 -6 -9 -12 0 -7
-9 -24 -20 -38 -11 -14 -46 -61 -77 -105 -31 -44 -65 -87 -75 -96 -10 -9 -18
-21 -18 -27 0 -6 -6 -15 -13 -19 -8 -4 -21 -19 -30 -33 l-17 -26 4335 0 c2384
0 4335 1 4335 2 0 1 -6 17 -14 35 -17 44 -25 67 -26 77 -1 4 -8 17 -16 30 -8
12 -12 22 -9 22 4 0 0 12 -8 28 -20 37 -77 162 -77 168 0 16 -182 362 -241
459 -10 17 -23 39 -29 50 -6 11 -28 47 -50 80 -22 33 -49 78 -61 100 -12 22
-27 43 -34 47 -7 4 -18 21 -25 38 -7 16 -16 30 -21 30 -5 0 -9 5 -9 11 0 7
-15 30 -33 53 -18 23 -40 53 -49 67 -9 14 -23 32 -30 40 -8 8 -28 34 -45 59
-17 25 -40 56 -52 70 -11 14 -24 30 -28 35 -16 20 -148 180 -158 191 -5 7 -35
40 -65 75 -110 126 -390 414 -506 520 -154 140 -222 200 -329 289 -50 41 -91
78 -93 83 -2 4 -8 7 -12 7 -5 0 -20 10 -33 23 -31 29 -66 57 -72 57 -3 0 -13
8 -23 18 -38 36 -72 62 -82 62 -6 0 -10 4 -10 8 0 4 -12 15 -27 24 -16 9 -37
25 -48 35 -11 11 -35 28 -52 38 -18 11 -33 23 -33 27 0 4 -5 8 -11 8 -6 0 -16
6 -23 13 -8 6 -24 19 -36 27 -13 8 -35 25 -50 38 -15 12 -33 22 -39 22 -6 0
-11 3 -11 8 0 4 -21 20 -48 37 -26 16 -49 32 -52 35 -3 3 -57 39 -120 80 -63
41 -116 78 -118 83 -2 4 -8 7 -12 7 -5 0 -48 25 -95 55 -46 30 -89 55 -95 55
-5 0 -10 5 -10 10 0 6 -6 10 -13 10 -7 0 -22 8 -33 18 -10 10 -26 21 -34 25
-8 3 -37 20 -65 36 -27 16 -72 42 -100 57 -27 14 -52 29 -55 33 -3 3 -21 14
-40 23 -19 10 -71 38 -115 63 -44 25 -96 53 -115 63 -19 9 -38 22 -42 27 -5 7
-8 7 -8 0 0 -7 -3 -7 -8 0 -4 6 -29 21 -57 35 -27 14 -70 36 -95 51 -25 14
-48 26 -52 27 -4 2 -103 49 -220 106 -204 99 -254 123 -378 179 -175 79 -198
89 -219 93 -8 1 -18 9 -22 16 -5 7 -9 10 -9 6 0 -6 -63 18 -135 52 -48 22
-231 93 -242 93 -7 0 -13 4 -13 9 0 4 -8 8 -18 8 -10 0 -22 3 -26 8 -4 4 -11
7 -14 7 -4 1 -18 7 -32 15 -14 7 -26 12 -28 11 -2 -2 -26 6 -55 17 -70 27 -90
34 -102 38 -5 1 -48 17 -95 34 -47 17 -119 42 -160 56 -41 14 -82 28 -90 31
-8 3 -17 7 -20 8 -3 0 -32 9 -65 19 -33 10 -61 18 -62 17 -2 0 -19 7 -38 15
-20 8 -40 12 -45 9 -6 -4 -10 -1 -10 4 0 6 -9 11 -19 11 -11 0 -22 3 -24 8 -3
4 10 39 28 77 40 86 95 216 100 240 2 6 13 39 25 75 12 36 24 76 26 90 3 14
10 43 16 65 6 22 13 49 15 60 2 11 8 45 13 75 15 81 23 149 24 202 1 27 4 48
8 48 4 0 4 10 -1 23 -5 14 -5 30 0 40 6 10 6 17 1 17 -5 0 -6 17 -2 40 4 22 5
40 1 40 -3 0 -6 19 -6 43 1 53 -22 205 -41 277 -8 30 -17 66 -20 80 -4 24 -17
63 -34 105 -5 11 -19 47 -32 80 -12 33 -40 91 -60 129 -21 38 -38 70 -38 72 0
8 -90 138 -138 199 -50 64 -265 285 -277 285 -5 0 -36 24 -64 50 -9 8 -29 21
-44 29 -15 8 -35 21 -44 30 -10 9 -30 22 -45 30 -16 8 -28 18 -28 22 0 4 -12
10 -27 14 -15 3 -30 10 -33 13 -7 10 -156 82 -169 82 -6 0 -11 4 -11 8 0 5 -6
9 -12 10 -7 1 -65 19 -128 41 -63 22 -128 42 -145 45 -16 3 -68 12 -115 21
-71 14 -392 29 -402 20z m4330 -5298 c105 -27 188 -73 261 -147 36 -36 71 -73
77 -81 20 -27 73 -143 79 -174 3 -17 9 -41 12 -55 10 -41 4 -203 -7 -217 -2
-2 -3 -6 -4 -10 -15 -57 -31 -97 -57 -141 -34 -59 -148 -184 -161 -176 -4 3
-8 1 -8 -4 0 -8 -80 -51 -136 -72 -47 -18 -97 -25 -189 -24 -110 1 -140 8
-232 51 -231 108 -364 376 -306 618 8 33 16 65 17 70 2 12 54 113 70 136 20
29 94 109 101 109 3 0 15 8 26 19 18 17 121 73 144 78 5 1 33 9 60 16 49 15
202 16 253 4z"/>
<path d="M2550 13063 c-54 -6 -134 -26 -169 -41 -20 -9 -39 -15 -43 -14 -3 1
-12 -5 -18 -13 -7 -8 -17 -15 -22 -15 -12 0 -74 -47 -114 -87 -49 -49 -79 -92
-117 -168 -34 -68 -40 -89 -53 -170 -4 -22 -7 -1453 -7 -3180 1 -2924 2 -3144
18 -3205 46 -178 159 -317 318 -394 39 -19 86 -37 102 -40 17 -3 44 -8 60 -12
39 -9 149 -8 200 1 59 11 57 10 99 28 21 9 43 17 48 17 28 0 168 114 225 183
49 60 100 187 110 276 8 71 8 6247 0 6321 -8 76 -18 106 -69 203 -34 67 -47
85 -103 140 -122 120 -309 188 -465 170z"/>
<path d="M6557 12623 c-1 0 -20 -4 -42 -8 -46 -8 -69 -13 -72 -15 -2 -2 -6 -3
-10 -5 -5 -1 -21 -7 -36 -13 -16 -7 -33 -12 -38 -12 -5 0 -9 -4 -9 -10 0 -5
-3 -9 -7 -8 -31 8 -189 -133 -227 -202 -11 -19 -22 -37 -26 -40 -9 -7 -38 -87
-53 -147 -8 -31 -13 -101 -13 -172 1 -67 -2 -121 -6 -121 -4 0 -5 -7 -2 -15 9
-23 10 -275 1 -275 -5 0 -5 -5 -1 -12 10 -16 11 -68 1 -68 -5 0 -5 -5 -1 -12
4 -7 8 -24 8 -38 0 -14 -4 -31 -8 -38 -4 -7 -4 -12 1 -12 4 0 8 -20 8 -45 0
-25 -3 -45 -8 -45 -4 0 -5 -5 -2 -10 9 -15 10 -234 1 -248 -4 -7 -4 -12 1 -12
10 0 9 -212 -1 -229 -4 -6 -3 -11 3 -11 7 0 7 -8 1 -25 -5 -14 -6 -25 -2 -25
4 0 7 -29 7 -65 0 -36 -4 -65 -8 -65 -5 0 -5 -5 -1 -12 10 -16 11 -68 1 -68
-5 0 -5 -5 -1 -12 4 -7 8 -24 8 -38 0 -14 -4 -31 -8 -38 -4 -7 -4 -12 1 -12 7
0 7 -47 2 -190 0 -8 1 -32 3 -52 3 -21 1 -38 -4 -38 -4 0 -5 -6 -2 -14 8 -21
10 -196 2 -196 -4 0 -5 -7 -2 -15 9 -23 10 -225 1 -225 -5 0 -5 -5 -2 -10 9
-15 10 -234 1 -248 -4 -7 -4 -12 1 -12 10 0 9 -212 -1 -229 -4 -6 -3 -11 3
-11 7 0 7 -8 1 -25 -5 -14 -6 -25 -2 -25 4 0 7 -18 7 -40 1 -22 -3 -40 -8 -40
-4 0 -5 -5 -2 -10 9 -15 10 -234 1 -248 -4 -7 -4 -12 1 -12 10 0 9 -212 -1
-229 -4 -6 -3 -11 3 -11 7 0 7 -8 1 -25 -5 -14 -6 -25 -2 -25 4 0 7 -29 7 -65
0 -36 -4 -65 -8 -65 -5 0 -5 -5 -1 -12 10 -16 11 -68 1 -68 -5 0 -5 -5 -1 -12
4 -7 8 -24 8 -38 0 -14 -4 -31 -8 -38 -4 -7 -4 -12 1 -12 4 0 8 -20 8 -45 0
-25 -3 -45 -8 -45 -4 0 -5 -5 -2 -10 9 -15 10 -234 1 -248 -4 -7 -4 -12 1 -12
10 0 9 -212 -1 -229 -4 -6 -3 -11 3 -11 7 0 7 -8 1 -25 -5 -14 -6 -25 -2 -25
4 0 7 -29 7 -65 0 -36 -4 -65 -8 -65 -5 0 -5 -5 -1 -12 10 -16 11 -68 1 -68
-5 0 -5 -5 -1 -12 10 -15 10 -61 0 -76 -4 -7 -4 -12 1 -12 4 0 8 -32 8 -70 0
-39 -4 -70 -8 -70 -5 0 -5 -5 -1 -12 10 -16 11 -68 1 -68 -5 0 -5 -5 -1 -12 4
-7 8 -24 8 -38 0 -14 -4 -31 -8 -38 -4 -7 -4 -12 1 -12 4 0 8 -20 8 -45 0 -25
-3 -45 -8 -45 -4 0 -5 -5 -2 -10 9 -15 10 -234 1 -248 -4 -7 -4 -12 1 -12 10
0 9 -212 -1 -229 -4 -6 -3 -11 3 -11 7 0 7 -8 1 -24 -5 -13 -6 -27 -3 -30 4
-3 8 -30 10 -59 2 -28 6 -59 10 -67 3 -8 7 -20 8 -25 6 -27 51 -124 74 -160
15 -21 47 -61 74 -88 53 -53 165 -130 178 -121 5 3 9 1 9 -4 0 -10 24 -19 75
-28 17 -4 32 -9 35 -14 3 -4 59 -6 125 -5 101 1 131 5 192 28 139 50 252 144
321 267 38 67 87 205 70 194 -7 -4 -7 0 0 12 12 22 10 5914 -2 5954 -4 14 -9
36 -12 50 -3 14 -22 58 -42 99 -52 104 -153 205 -252 254 -77 37 -104 48 -130
53 -8 2 -31 6 -50 10 -31 6 -149 12 -153 7z"/>
<path d="M508 10574 c-3 -3 -16 -6 -29 -8 -191 -21 -402 -211 -454 -411 -5
-16 -11 -39 -14 -50 -3 -11 -6 -609 -6 -1330 0 -1327 1 -1362 34 -1420 3 -5 7
-19 8 -30 2 -10 7 -22 12 -25 5 -3 11 -15 15 -27 4 -13 12 -23 17 -23 5 0 9
-6 9 -14 0 -19 106 -126 160 -162 113 -76 194 -99 345 -98 102 0 201 23 264
61 126 77 194 146 250 255 22 43 39 78 36 78 -2 0 0 12 6 28 6 15 14 38 17 52
4 14 6 615 6 1335 l0 1310 -28 80 c-64 185 -203 320 -394 381 -46 15 -243 29
-254 18z"/>
<path d="M8577 9694 c-1 -1 -18 -4 -37 -7 -80 -11 -180 -44 -180 -59 0 -5 -4
-7 -9 -3 -5 3 -16 -2 -24 -10 -9 -8 -20 -15 -26 -15 -6 0 -24 -13 -41 -30 -16
-16 -30 -27 -30 -24 0 7 -48 -45 -79 -86 -14 -19 -28 -37 -31 -40 -3 -3 -18
-31 -33 -64 -60 -128 -59 -95 -59 -1216 1 -564 3 -1034 5 -1045 21 -93 64
-197 97 -239 40 -50 86 -102 99 -110 7 -4 21 -16 31 -25 40 -38 158 -96 218
-107 12 -2 34 -7 50 -10 34 -7 158 -8 197 0 54 10 140 40 153 53 7 7 18 13 23
13 19 0 99 61 150 113 61 63 116 157 142 246 19 63 20 107 21 1095 1 740 -2
1045 -10 1085 -7 31 -13 65 -15 76 -2 11 -6 22 -9 25 -3 3 -20 35 -39 72 -87
176 -291 302 -504 312 -31 1 -58 1 -60 0z"/>
</g>
</svg>
