<svg width="15" height="19" viewBox="0 0 15 19" fill="none" xmlns="http://www.w3.org/2000/svg">
  <path d="M8.35593 17.5942C8.13403 17.5942 7.95247 17.7531 7.95247 17.9473C7.95247 18.1415 8.13403 18.3004 8.35593 18.3004C10.4095 18.3004 12.0112 17.7107 13.1126 16.5454C15.5939 13.9287 14.6417 9.36621 14.5973 9.17197C14.5611 9.00601 14.3956 8.88594 14.206 8.88594C14.202 8.88594 14.202 8.88594 14.202 8.88594C14.0083 8.88594 13.8429 9.00601 13.8066 9.16846C13.5847 10.1466 12.8625 10.6057 12.3582 10.814C12.9472 2.2824 4.3698 0.665058 4.28105 0.650919C4.10754 0.622684 3.93005 0.693315 3.84531 0.831019C3.76058 0.968746 3.79286 1.13824 3.91793 1.24771C4.07528 1.38544 7.6418 4.55655 4.2528 8.26442C3.95827 7.86892 3.45799 7.26508 2.82055 6.73538C2.71565 6.65063 2.56637 6.61531 2.42918 6.65063C2.292 6.68594 2.18712 6.78129 2.1508 6.90134C2.14676 6.91899 1.63841 8.60697 0.819407 10.129C0.0689884 11.5238 -0.0238228 14.0452 1.28336 15.9697C2.21537 17.3399 3.66779 18.1133 5.49141 18.2086H5.49543C5.71331 18.2157 5.90696 18.0709 5.91907 17.8731V17.8484C5.91907 17.6648 5.75768 17.5129 5.53982 17.5023C5.07584 17.4776 4.75308 17.3258 4.5554 17.0327C4.043 16.2805 4.41013 14.8044 4.82166 14.0417C5.0113 13.685 5.16863 13.3142 5.28565 13.0176C5.45509 13.2189 5.55595 13.3778 5.55999 13.3813C5.62453 13.4802 5.73751 13.5473 5.86662 13.5614C5.99573 13.572 6.12481 13.5296 6.20955 13.4449C7.46027 12.2336 7.37957 11.0118 6.94384 10.1325C8.04122 10.6551 9.5098 11.8346 9.23141 14.3595C9.21932 14.4689 9.26774 14.5784 9.35648 14.6526C9.4493 14.7267 9.5784 14.7585 9.70347 14.7409C9.73169 14.7373 10.1432 14.6702 10.5265 14.3877C10.6274 15.1752 10.6274 16.2946 10.0182 16.9797C9.65504 17.3929 9.11038 17.5942 8.35593 17.5942Z" fill="currentColor"/>
</svg>
