<svg width="18" height="17" viewBox="0 0 18 17" fill="none" xmlns="http://www.w3.org/2000/svg">
  <path d="M5.40791 16.2677C5.28275 16.2624 5.16169 16.2215 5.05891 16.1499C4.95613 16.0782 4.87588 15.9788 4.82755 15.8632L3.88666 13.6297H3.67562C2.7015 13.6274 1.76794 13.2394 1.07913 12.5506C0.39032 11.8618 0.00232211 10.9282 0 9.95408V3.67562C0.00232211 2.7015 0.39032 1.76794 1.07913 1.07913C1.76794 0.39032 2.7015 0.00232211 3.67562 0H14.3244C15.2985 0.00232211 16.2321 0.39032 16.9209 1.07913C17.6097 1.76794 17.9977 2.7015 18 3.67562V9.95408C17.9977 10.9282 17.6097 11.8618 16.9209 12.5506C16.2321 13.2394 15.2985 13.6274 14.3244 13.6297H7.22814L6.03224 15.916C5.97315 16.0285 5.88278 16.1216 5.77202 16.184C5.66125 16.2464 5.53481 16.2755 5.40791 16.2677ZM3.64924 1.319C3.02423 1.319 2.42481 1.56729 1.98286 2.00924C1.54091 2.45119 1.29262 3.05061 1.29262 3.67562V9.95408C1.29262 10.5791 1.54091 11.1785 1.98286 11.6205C2.42481 12.0624 3.02423 12.3107 3.64924 12.3107H4.29116C4.42086 12.311 4.5476 12.3495 4.65552 12.4215C4.76344 12.4934 4.84775 12.5956 4.8979 12.7152L5.46947 14.0606L6.19932 12.6624C6.2551 12.5567 6.33856 12.4681 6.44078 12.4062C6.54301 12.3442 6.66015 12.3112 6.77968 12.3107H14.3156C14.9406 12.3107 15.54 12.0624 15.982 11.6205C16.4239 11.1785 16.6722 10.5791 16.6722 9.95408V3.67562C16.6722 3.05061 16.4239 2.45119 15.982 2.00924C15.54 1.56729 14.9406 1.319 14.3156 1.319H3.64924Z" fill="currentColor"/>
  <path d="M5.46967 8.13392C5.95531 8.13392 6.349 7.74022 6.349 7.25458C6.349 6.76894 5.95531 6.37524 5.46967 6.37524C4.98402 6.37524 4.59033 6.76894 4.59033 7.25458C4.59033 7.74022 4.98402 8.13392 5.46967 8.13392Z" fill="currentColor"/>
  <path d="M8.98676 8.13392C9.4724 8.13392 9.86609 7.74022 9.86609 7.25458C9.86609 6.76894 9.4724 6.37524 8.98676 6.37524C8.50111 6.37524 8.10742 6.76894 8.10742 7.25458C8.10742 7.74022 8.50111 8.13392 8.98676 8.13392Z" fill="currentColor"/>
  <path d="M12.5038 8.13392C12.9895 8.13392 13.3832 7.74022 13.3832 7.25458C13.3832 6.76894 12.9895 6.37524 12.5038 6.37524C12.0182 6.37524 11.6245 6.76894 11.6245 7.25458C11.6245 7.74022 12.0182 8.13392 12.5038 8.13392Z" fill="currentColor"/>
</svg>
