<svg width="13" height="16" viewBox="0 0 13 16" fill="none" xmlns="http://www.w3.org/2000/svg">
  <path d="M11.05 9.02013C10.725 8.76957 10.2556 8.84116 10.0028 9.1991C9.75 9.52125 9.82222 9.98658 10.1833 10.2371C11.05 10.8456 11.5194 11.6331 11.5194 12.4206C11.5194 13.8166 9.82222 14.4966 6.53611 14.4966C3.25 14.4966 1.55278 13.7808 1.55278 12.4206C1.55278 10.6667 3.82778 9.16331 6.53611 9.16331C8.84722 9.16331 10.6167 6.47875 10.6167 4.15212C10.6167 1.8613 8.775 0 6.53611 0C4.29722 0 2.45556 1.8613 2.45556 4.15212C2.45556 5.5123 3.06944 7.01566 4.08056 8.0179C1.66111 8.73378 0 10.4519 0 12.4206C0 14.783 2.20278 16 6.5 16C10.8333 16 13 14.783 13 12.4206C13 11.132 12.3139 9.91499 11.05 9.02013ZM3.93611 4.18792C3.93611 2.72036 5.09167 1.53915 6.5 1.53915C7.90833 1.53915 9.06389 2.72036 9.06389 4.18792C9.06389 5.72707 7.8 7.69575 6.5 7.69575C5.16389 7.65995 3.93611 5.69127 3.93611 4.18792Z" fill="currentColor"/>
</svg>
