<svg width="18" height="17" viewBox="0 0 18 17" fill="none" xmlns="http://www.w3.org/2000/svg">
  <path d="M14.3976 10.862C14.2913 10.9663 14.2559 11.1054 14.2559 11.2445L15.0356 15.6224C15.1065 16.0398 14.9293 16.4918 14.5749 16.7353C14.2204 16.9787 13.7596 17.0135 13.3343 16.8396L9.33301 14.7917C9.19124 14.7221 9.04946 14.7221 8.90768 14.7917L4.90639 16.8396C4.72916 16.9439 4.55194 16.9787 4.37472 16.9787C4.12661 16.9787 3.91394 16.9092 3.70127 16.77C3.34683 16.5266 3.16961 16.0745 3.24049 15.6572L4.02027 11.2793C4.05572 11.1402 3.98483 11.0011 3.8785 10.8968L0.621538 7.77081C0.302538 7.45783 0.196204 7.00574 0.337982 6.58843C0.47976 6.17112 0.834206 5.89291 1.25954 5.82336L5.72161 5.16262C5.86339 5.12784 6.00517 5.05829 6.07606 4.91919L8.09246 0.923818C8.30512 0.541283 8.69501 0.297852 9.12035 0.297852C9.58113 0.297852 9.97101 0.541283 10.1482 0.923818L12.1646 4.91919C12.2355 5.05829 12.3419 5.12784 12.5191 5.16262L16.9812 5.78858C17.4419 5.85814 17.7964 6.13634 17.9382 6.55365C18.0799 6.97096 17.9736 7.42305 17.6546 7.73603L14.3976 10.862Z" fill="currentColor"/>
</svg>
