<svg width="16" height="16" viewBox="0 0 16 16" xmlns="http://www.w3.org/2000/svg"><title>instagram</title>
  <defs>
    <linearGradient x1="50%" y1="99.709%" x2="50%" y2=".777%" id="a">
      <stop stop-color="#E09B3D" offset="0%"/>
      <stop stop-color="#C74C4D" offset="30%"/>
      <stop stop-color="#C21975" offset="60%"/>
      <stop stop-color="#7024C4" offset="100%"/>
    </linearGradient>
  </defs>
  <g fill="url(#a)" fill-rule="nonzero">
    <path
      d="M10.41 2H5.57A3.573 3.573 0 0 0 2 5.569v4.841c0 1.968 1.6 3.569 3.569 3.569h4.841c1.968 0 3.569-1.6 3.569-3.569V5.57C13.979 3.6 12.379 2 10.41 2zm2.364 8.41a2.364 2.364 0 0 1-2.364 2.364H5.57a2.364 2.364 0 0 1-2.364-2.364V5.57A2.364 2.364 0 0 1 5.57 3.205h4.841a2.364 2.364 0 0 1 2.364 2.364v4.841z"/>
    <path
      d="M7.99 4.891A3.102 3.102 0 0 0 4.89 7.99a3.102 3.102 0 0 0 3.098 3.099 3.102 3.102 0 0 0 3.099-3.099A3.102 3.102 0 0 0 7.99 4.891zm0 4.992a1.893 1.893 0 1 1 0-3.787 1.893 1.893 0 0 1 0 3.787z"/>
    <ellipse cx="11" cy="5" rx=".429" ry=".429"/>
  </g>
</svg>
