<svg width="16" height="16" viewBox="0 0 16 16" xmlns="http://www.w3.org/2000/svg"><title>twitter</title>
  <path
    d="M12.724 4.147a4.09 4.09 0 0 1-1.303.49A2.071 2.071 0 0 0 9.924 4c-1.133 0-2.052.903-2.052 2.02 0 .157.018.313.053.46a5.86 5.86 0 0 1-4.229-2.11 1.98 1.98 0 0 0-.278 1.017c0 .7.363 1.316.913 1.68a2.08 2.08 0 0 1-.929-.254v.027c0 .977.707 1.793 1.646 1.98a2.068 2.068 0 0 1-.927.033 2.05 2.05 0 0 0 1.917 1.404 4.169 4.169 0 0 1-2.549.863c-.166 0-.329-.01-.49-.027A5.876 5.876 0 0 0 6.145 12c3.774 0 5.837-3.077 5.837-5.747 0-.086-.001-.173-.005-.26.4-.286.749-.64 1.023-1.046-.367.16-.763.27-1.178.316.424-.246.749-.643.902-1.116"
    fill="#1DA1F2" fill-rule="evenodd"/>
</svg>
