<svg width="16" height="16" viewBox="0 0 16 16" xmlns="http://www.w3.org/2000/svg"><title>youtube</title>
  <path
    d="M1.14 5.525s.137-1.008.557-1.454c.531-.584 1.232-.566 1.543-.627C4.36 3.33 8 3.297 8 3.297s2.942.004 4.9.152c.275.035.871.037 1.403.622.42.445.557 1.455.557 1.455S15 6.713 15 7.901v1.153c0 1.188-.14 2.374-.14 2.374s-.136 1.01-.556 1.455c-.533.585-1.13.587-1.404.622-1.958.148-4.9.152-4.9.152s-3.64-.034-4.76-.146c-.312-.062-1.012-.044-1.544-.627-.42-.447-.556-1.455-.556-1.455S1 10.242 1 9.055V7.9c0-1.187.14-2.375.14-2.375zm5.415.757l3.782 2.067-3.78 2.053-.003-4.12z"
    fill="#D22222" fill-rule="evenodd"/>
</svg>
