<svg width="0" height="0" style="position:absolute"><symbol fill="none" viewBox="0 0 15 19" id="i_fire" xmlns="http://www.w3.org/2000/svg"><path d="M8.356 17.594c-.222 0-.404.16-.404.353 0 .195.182.353.404.353 2.053 0 3.655-.59 4.757-1.755 2.48-2.616 1.529-7.179 1.484-7.373-.036-.166-.201-.286-.391-.286h-.004c-.194 0-.36.12-.395.282-.222.979-.944 1.438-1.449 1.646C12.948 2.282 4.37.665 4.281.651a.43.43 0 00-.436.18.322.322 0 00.073.417c.157.137 3.724 3.309.335 7.016A9.13 9.13 0 002.82 6.735c-.105-.084-.255-.12-.392-.084a.383.383 0 00-.278.25c-.004.018-.513 1.706-1.332 3.228-.75 1.395-.843 3.916.464 5.84.932 1.37 2.385 2.144 4.208 2.24h.004c.218.007.412-.138.424-.336v-.025c0-.183-.161-.335-.38-.346-.463-.024-.786-.176-.984-.47-.512-.752-.145-2.228.267-2.99.19-.357.347-.728.464-1.024.17.2.27.36.274.363a.418.418 0 00.307.18c.129.011.258-.031.343-.116 1.25-1.211 1.17-2.433.734-3.313 1.097.523 2.566 1.703 2.287 4.228a.338.338 0 00.125.293.46.46 0 00.347.088c.029-.004.44-.07.824-.353.1.787.1 1.907-.509 2.592-.363.413-.908.614-1.662.614z" fill="currentColor"/></symbol><symbol fill="none" viewBox="0 0 18 17" id="i_message" xmlns="http://www.w3.org/2000/svg"><path d="M5.408 16.268a.66.66 0 01-.58-.405l-.941-2.233h-.211A3.684 3.684 0 010 9.954V3.676A3.684 3.684 0 013.676 0h10.648A3.684 3.684 0 0118 3.676v6.278a3.684 3.684 0 01-3.676 3.676H7.228l-1.196 2.286a.66.66 0 01-.624.352zM3.649 1.319a2.357 2.357 0 00-2.356 2.357v6.278a2.357 2.357 0 002.356 2.357h.642a.66.66 0 01.607.404l.571 1.346.73-1.399a.66.66 0 01.58-.351h7.537a2.357 2.357 0 002.356-2.357V3.676a2.357 2.357 0 00-2.356-2.357H3.649z" fill="currentColor"/><path d="M5.47 8.134a.88.88 0 100-1.759.88.88 0 000 1.759zM8.987 8.134a.88.88 0 100-1.759.88.88 0 000 1.759zM12.504 8.134a.88.88 0 100-1.759.88.88 0 000 1.759z" fill="currentColor"/></symbol><symbol fill="none" viewBox="0 0 13 16" id="i_person" xmlns="http://www.w3.org/2000/svg"><path d="M11.05 9.02c-.325-.25-.794-.179-1.047.18-.253.321-.18.787.18 1.037.867.609 1.336 1.396 1.336 2.184 0 1.396-1.697 2.076-4.983 2.076-3.286 0-4.983-.716-4.983-2.076 0-1.754 2.275-3.258 4.983-3.258 2.311 0 4.08-2.684 4.08-5.01C10.617 1.86 8.776 0 6.537 0s-4.08 1.861-4.08 4.152c0 1.36.613 2.864 1.625 3.866C1.66 8.734 0 10.452 0 12.42 0 14.783 2.203 16 6.5 16c4.333 0 6.5-1.217 6.5-3.58 0-1.288-.686-2.505-1.95-3.4zM3.936 4.188c0-1.468 1.156-2.649 2.564-2.649 1.408 0 2.564 1.181 2.564 2.649 0 1.54-1.264 3.508-2.564 3.508C5.164 7.66 3.936 5.69 3.936 4.188z" fill="currentColor"/></symbol><symbol viewBox="0 0 32 32" id="i_plus" xmlns="http://www.w3.org/2000/svg"><path fill="currentColor" d="M28 14H18V4a2 2 0 00-4 0v10H4a2 2 0 000 4h10v10a2 2 0 004 0V18h10a2 2 0 000-4z"/></symbol><symbol fill="none" viewBox="0 0 18 17" id="i_star" xmlns="http://www.w3.org/2000/svg"><path d="M14.398 10.862a.517.517 0 00-.142.383l.78 4.377c.07.418-.107.87-.461 1.113-.355.244-.815.279-1.24.105l-4.002-2.048a.46.46 0 00-.425 0L4.906 16.84c-.177.104-.354.139-.531.139-.248 0-.461-.07-.674-.209a1.139 1.139 0 01-.46-1.113l.78-4.378c.035-.139-.036-.278-.143-.382L.623 7.77a1.132 1.132 0 01-.284-1.183 1.15 1.15 0 01.922-.765l4.462-.66c.141-.035.283-.105.354-.244L8.092.924A1.186 1.186 0 019.12.298c.461 0 .851.243 1.028.626l2.017 3.995c.07.14.177.209.354.244l4.462.626c.46.07.815.347.957.765.142.417.036.869-.283 1.182l-3.257 3.126z" fill="currentColor"/></symbol></svg>