<svg xmlns="http://www.w3.org/2000/svg" viewBox="0 0 205 34"><g fill="#ed1066"><path d="M140 12.436h-.003a2.16 2.16 0 0 0-2.156 2.157v8.813a2.16 2.16 0 0 0 2.156 2.157H140a2.16 2.16 0 0 0 2.157-2.157v-8.813A2.16 2.16 0 0 0 140 12.436zm7.3-9.034a2.16 2.16 0 0 0-1.526.633c-.2.2-.36.44-.467.7a2.15 2.15 0 0 0-.163.826v22.4a2.16 2.16 0 0 0 .631 1.525c.405.405.953.632 1.525.632s1.12-.227 1.525-.632.632-.953.632-1.525V5.562a2.16 2.16 0 0 0-2.157-2.16zM154.6 0c-.572 0-1.12.227-1.525.632s-.632.953-.632 1.525V31.7a2.16 2.16 0 0 0 4.316 0V2.157A2.16 2.16 0 0 0 154.6 0zm7.3 5.003c-.57 0-1.12.227-1.524.632a2.16 2.16 0 0 0-.632 1.525v20.813c-.01.3.037.58.14.85s.26.52.462.728a2.28 2.28 0 0 0 .7.49 2.16 2.16 0 0 0 1.69 0c.267-.114.508-.28.7-.5a2.17 2.17 0 0 0 .462-.728c.104-.27.152-.56.14-.85V7.16a2.17 2.17 0 0 0-.633-1.525 2.16 2.16 0 0 0-1.527-.631zm7.3 10.655a2.16 2.16 0 0 0-2.16 2.157v7.03a2.16 2.16 0 0 0 2.158 2.081 2.16 2.16 0 0 0 1.499-.605c.403-.388.64-.917.66-1.476v-7.03a2.16 2.16 0 0 0-.631-1.525c-.405-.405-.953-.632-1.525-.632z"/><path d="M178.2 28.205h24.855c1.393 0 2.338-1.39 1.66-2.608-4.464-8-14.22-12.354-18.676-13.986-1.182-.433-1.742-1.817-1.494-3.05.945-4.7-2.97-7.828-6.286-7.828-1.56.001-3.076.53-4.3 1.5s-2.083 2.326-2.44 3.846a8.24 8.24 0 0 0-.11.69l-.018.175c-.026.283-.035.566-.03.85.102 3.763 2.992 6.51 3.02 6.537h0c.06.053 4.764 4.272 1.994 10.62a2.14 2.14 0 0 0 1.821 3.254zm15.98-8.296c-.335-.224-.728-.343-1.13-.343-.54 0-1.06.215-1.44.597a2.04 2.04 0 0 0-.597 1.441c0 .403.12.797.344 1.132s.542.596.914.75.782.195 1.177.116.758-.273 1.043-.558a2.04 2.04 0 0 0 .558-1.043c.078-.395.038-.805-.116-1.177s-.416-.69-.75-.914z" fill-rule="evenodd"/></g><path d="M15.85 20.915c.014 1.15-.3 2.276-.93 3.242a6.21 6.21 0 0 1-2.727 2.26 10.24 10.24 0 0 1-4.258.815c-1.97 0-3.595-.372-4.872-1.115A6.49 6.49 0 0 1 .85 23.974C.32 23.2.025 22.29 0 21.354a1.74 1.74 0 0 1 .128-.68c.088-.216.217-.412.382-.577a1.75 1.75 0 0 1 .596-.398c.224-.1.464-.133.705-.126a1.54 1.54 0 0 1 1.08.407 3.2 3.2 0 0 1 .757 1.211 7.92 7.92 0 0 0 .824 1.592 3.33 3.33 0 0 0 1.243 1.083 4.61 4.61 0 0 0 2.11.413c1.035.045 2.057-.25 2.9-.835a2.52 2.52 0 0 0 1.123-2.09 2.22 2.22 0 0 0-.605-1.612 3.91 3.91 0 0 0-1.566-.946c-.636-.22-1.488-.45-2.555-.696-1.236-.266-2.442-.656-3.6-1.164a5.8 5.8 0 0 1-2.29-1.836c-.592-.85-.9-1.87-.85-2.905-.013-1.04.3-2.058.896-2.9a5.67 5.67 0 0 1 2.599-1.968C5.155 6.834 6.514 6.6 7.88 6.63a9.83 9.83 0 0 1 3.181.442 6.77 6.77 0 0 1 2.227 1.21 5.1 5.1 0 0 1 1.292 1.583 3.68 3.68 0 0 1 .408 1.621c0 .482-.182.945-.5 1.298a1.62 1.62 0 0 1-1.272.582c-.384.027-.763-.098-1.056-.346a4.71 4.71 0 0 1-.798-1.141 5.2 5.2 0 0 0-1.307-1.746c-.5-.422-1.324-.634-2.45-.634a4.25 4.25 0 0 0-2.512.687c-.64.46-.96 1-.96 1.653a1.67 1.67 0 0 0 .33 1.036 2.72 2.72 0 0 0 .896.748 5.92 5.92 0 0 0 1.164.489l1.933.518a30.11 30.11 0 0 1 3.053.873 9.23 9.23 0 0 1 2.328 1.164c.633.442 1.148 1.033 1.5 1.72a5.51 5.51 0 0 1 .527 2.526zm17.08-1.223c.01 1.043-.166 2.08-.518 3.062-.324.898-.834 1.72-1.496 2.407a6.61 6.61 0 0 1-2.328 1.546c-.98.372-2.024.554-3.073.536a8.01 8.01 0 0 1-3.036-.544 6.7 6.7 0 0 1-2.34-1.564 6.69 6.69 0 0 1-1.49-2.388 8.73 8.73 0 0 1-.509-3.053 8.87 8.87 0 0 1 .515-3.088c.32-.894.826-1.7 1.484-2.395.656-.673 1.45-1.195 2.328-1.53a8.85 8.85 0 0 1 6.095 0 6.57 6.57 0 0 1 2.355 1.552c.665.682 1.172 1.498 1.5 2.395a8.8 8.8 0 0 1 .524 3.068zm-3.73 0c0-1.515-.333-2.695-.998-3.54a3.25 3.25 0 0 0-1.19-.958c-.467-.22-.98-.326-1.496-.308-.683-.012-1.353.185-1.92.565a3.6 3.6 0 0 0-1.278 1.668c-.315.82-.467 1.694-.448 2.573-.02.87.13 1.732.442 2.544.25.667.7 1.247 1.266 1.668a3.3 3.3 0 0 0 1.94.582 3.23 3.23 0 0 0 1.498-.31 3.24 3.24 0 0 0 1.19-.963c.666-.85.997-2.024.995-3.522zm16.3 5.454v-.474a8.26 8.26 0 0 1-1.4 1.414 5.19 5.19 0 0 1-1.607.85c-.643.2-1.314.298-1.988.3a5.12 5.12 0 0 1-2.413-.559c-.685-.346-1.258-.88-1.653-1.537-.464-.8-.696-1.924-.696-3.402v-7.372c0-.745.17-1.298.504-1.668a1.72 1.72 0 0 1 .606-.42 1.74 1.74 0 0 1 .727-.13 1.77 1.77 0 0 1 1.362.559 2.38 2.38 0 0 1 .518 1.66v5.946c-.013.73.06 1.458.215 2.17a2.62 2.62 0 0 0 .78 1.374 2.24 2.24 0 0 0 1.531.495 3.11 3.11 0 0 0 1.77-.556c.538-.355.96-.86 1.2-1.455.2-.528.314-1.68.314-3.458v-4.517c0-.733.172-1.286.515-1.66a1.74 1.74 0 0 1 .615-.428 1.75 1.75 0 0 1 .738-.131 1.72 1.72 0 0 1 1.333.55c.335.37.504.923.504 1.668v10.77c.044.572-.13 1.14-.483 1.592a1.6 1.6 0 0 1-1.246.53 1.62 1.62 0 0 1-1.272-.556 2.23 2.23 0 0 1-.486-1.546zm10.56-10.952v.448a6.54 6.54 0 0 1 2.151-1.898c.83-.416 1.747-.624 2.675-.605a5.32 5.32 0 0 1 2.62.64 4.09 4.09 0 0 1 1.73 1.807 4.34 4.34 0 0 1 .477 1.47 15.39 15.39 0 0 1 .108 2.014v6.912c0 .745-.17 1.308-.5 1.688-.164.2-.37.34-.598.44a1.69 1.69 0 0 1-.73.142 1.71 1.71 0 0 1-1.347-.582 2.45 2.45 0 0 1-.515-1.674V18.79c0-1.225-.172-2.16-.512-2.8s-1.02-.975-2.037-.975a2.96 2.96 0 0 0-1.8.582c-.554.408-.97.974-1.196 1.624-.18.557-.27 1.6-.27 3.103v4.657c0 .754-.178 1.318-.524 1.694a1.75 1.75 0 0 1-.608.434 1.73 1.73 0 0 1-.734.14 1.68 1.68 0 0 1-1.319-.582 2.43 2.43 0 0 1-.518-1.674V14.26c0-.708.154-1.237.463-1.586a1.62 1.62 0 0 1 .574-.404 1.59 1.59 0 0 1 .692-.12c.307-.002.608.08.873.233a1.65 1.65 0 0 1 .632.693 2.44 2.44 0 0 1 .236 1.118zM79.695 25.12v-.367a9.56 9.56 0 0 1-1.478 1.394c-.478.356-1 .63-1.578.815a5.93 5.93 0 0 1-1.857.291 5.42 5.42 0 0 1-2.47-.565 5.75 5.75 0 0 1-1.965-1.612 7.41 7.41 0 0 1-1.26-2.462c-.292-.994-.436-2.026-.428-3.062 0-2.328.567-4.138 1.703-5.428s2.627-1.94 4.476-1.947a6.03 6.03 0 0 1 2.707.553 7.55 7.55 0 0 1 2.151 1.694V8.93a2.81 2.81 0 0 1 .454-1.73 1.56 1.56 0 0 1 .58-.45c.227-.102.474-.147.72-.133.243-.014.486.026.7.12a1.6 1.6 0 0 1 .587.42 2.38 2.38 0 0 1 .457 1.575v16.4a2.27 2.27 0 0 1-.492 1.592 1.75 1.75 0 0 1-.579.394c-.218.1-.45.137-.687.135s-.47-.052-.685-.146-.4-.232-.572-.403a2.26 2.26 0 0 1-.495-1.572zm-7.308-5.457a6.37 6.37 0 0 0 .469 2.573 3.59 3.59 0 0 0 1.286 1.598 3.18 3.18 0 0 0 1.784.538 3.3 3.3 0 0 0 1.784-.506 3.52 3.52 0 0 0 1.295-1.566 6.36 6.36 0 0 0 .48-2.619 6.18 6.18 0 0 0-.48-2.55 3.84 3.84 0 0 0-1.295-1.65 3.11 3.11 0 0 0-1.804-.565 3.05 3.05 0 0 0-1.822.582 3.71 3.71 0 0 0-1.246 1.662 6.61 6.61 0 0 0-.45 2.503zM92.62 18.37h-1.417v6.403c0 .844-.183 1.455-.556 1.866a1.9 1.9 0 0 1-1.455.582 1.85 1.85 0 0 1-1.499-.626c-.353-.417-.53-1.03-.53-1.837V9.433c0-.87.194-1.5.582-1.892s1.02-.586 1.892-.582h6.572a19.58 19.58 0 0 1 2.328.116 5.76 5.76 0 0 1 1.746.47 5.02 5.02 0 0 1 1.659 1.129 4.91 4.91 0 0 1 1.089 1.706 5.67 5.67 0 0 1 .375 2.061c0 1.486-.42 2.675-1.257 3.565s-2.1 1.52-3.818 1.892a7.4 7.4 0 0 1 2.054 1.685c.65.74 1.234 1.534 1.747 2.375.45.728.85 1.487 1.2 2.273a4.48 4.48 0 0 1 .44 1.383 1.41 1.41 0 0 1-.25.783 1.74 1.74 0 0 1-.687.611c-.312.155-.658.232-1.007.224a1.95 1.95 0 0 1-1.144-.32c-.313-.217-.583-.5-.794-.8l-.905-1.455-1.618-2.695a14.84 14.84 0 0 0-1.56-2.26c-.377-.457-.854-.82-1.394-1.062a4.85 4.85 0 0 0-1.78-.26zm2.3-8.382h-3.728v5.483h3.62a10.11 10.11 0 0 0 2.451-.25 2.88 2.88 0 0 0 1.516-.859 2.45 2.45 0 0 0 .524-1.665 2.6 2.6 0 0 0-.422-1.455 2.56 2.56 0 0 0-1.164-.946c-.477-.207-1.4-.3-2.797-.3zM116 25.146a11.5 11.5 0 0 1-2.62 1.572 7.28 7.28 0 0 1-2.824.524 5.31 5.31 0 0 1-2.508-.565 4.11 4.11 0 0 1-1.668-1.531 3.96 3.96 0 0 1-.582-2.096 3.76 3.76 0 0 1 .966-2.599 4.82 4.82 0 0 1 2.652-1.455l1.746-.367 2.4-.524 2.168-.582c-.042-.982-.236-1.7-.582-2.157s-1.07-.687-2.17-.687c-.943 0-1.652.132-2.128.396-.5.286-.92.692-1.225 1.182l-.722 1.042c-.14.17-.442.25-.905.25-.4.01-.77-.124-1.068-.378a1.3 1.3 0 0 1-.346-.461c-.08-.178-.117-.37-.1-.566a3.13 3.13 0 0 1 .696-1.903 4.95 4.95 0 0 1 2.162-1.525 9.75 9.75 0 0 1 3.659-.597c1.633 0 2.917.194 3.85.582.873.33 1.584.986 1.982 1.83.388.834.582 1.94.582 3.32v2.218l-.02 2.037a7.51 7.51 0 0 0 .346 2.186 6.75 6.75 0 0 1 .347 1.455 1.37 1.37 0 0 1-.16.575 1.36 1.36 0 0 1-.39.453 1.8 1.8 0 0 1-1.219.469 1.64 1.64 0 0 1-1.129-.536 7.89 7.89 0 0 1-1.18-1.562zm-.247-5.373a18.98 18.98 0 0 1-2.372.632l-2.157.5a2.91 2.91 0 0 0-1.144.614 1.56 1.56 0 0 0-.42.573c-.095.22-.137.46-.124.7a1.88 1.88 0 0 0 .163.788 1.87 1.87 0 0 0 .477.647 2.36 2.36 0 0 0 1.674.582 4.37 4.37 0 0 0 2.037-.483c.568-.268 1.045-.697 1.37-1.234.337-.562.503-1.487.503-2.777l-.008-.53zm6.927-7.307h.408v-2.23l.05-1.4a2.04 2.04 0 0 1 .265-.873 1.66 1.66 0 0 1 .626-.62c.277-.16.592-.24.9-.236a1.82 1.82 0 0 1 1.278.53 1.56 1.56 0 0 1 .483.873 7.71 7.71 0 0 1 .105 1.455v2.53h1.36a1.75 1.75 0 0 1 1.205.376 1.25 1.25 0 0 1 .313.433 1.26 1.26 0 0 1 .1.525c.02.213-.027.427-.13.613a1.07 1.07 0 0 1-.452.434 3.83 3.83 0 0 1-1.694.291h-.693v6.82c-.006.447.014.894.06 1.34a1.36 1.36 0 0 0 .318.763 1.11 1.11 0 0 0 .405.24c.15.05.3.068.468.05a4.5 4.5 0 0 0 .873-.116 4.74 4.74 0 0 1 .873-.116 1.13 1.13 0 0 1 .442.098 1.12 1.12 0 0 1 .367.263 1.22 1.22 0 0 1 .27.412 1.08 1.08 0 0 1 .085.485c0 .582-.33 1.056-.98 1.374s-1.586.474-2.802.474c-1.165 0-2.044-.194-2.64-.582a2.71 2.71 0 0 1-1.164-1.618 10.88 10.88 0 0 1-.29-2.762v-7.145h-.5a1.76 1.76 0 0 1-1.237-.37c-.137-.12-.245-.27-.318-.436a1.22 1.22 0 0 1-.104-.53 1.21 1.21 0 0 1 .11-.53c.077-.166.2-.312.332-.428a1.94 1.94 0 0 1 1.289-.375z" fill="#fff"/></svg>
